<svg width="45" height="45" viewBox="0 0 45 45" fill="none" xmlns="http://www.w3.org/2000/svg">
<path d="M22.4999 3.75012C12.1499 3.75012 3.74994 12.1501 3.74994 22.5001C3.74994 32.8501 12.1499 41.2501 22.4999 41.2501C32.8499 41.2501 41.2499 32.8501 41.2499 22.5001C41.2499 12.1501 32.8499 3.75012 22.4999 3.75012ZM17.4187 30.5439L10.6874 23.8126C9.95619 23.0814 9.95619 21.9001 10.6874 21.1689C11.4187 20.4376 12.5999 20.4376 13.3312 21.1689L18.7499 26.5689L31.6499 13.6689C32.3812 12.9376 33.5624 12.9376 34.2937 13.6689C35.0249 14.4001 35.0249 15.5814 34.2937 16.3126L20.0624 30.5439C19.3499 31.2751 18.1499 31.2751 17.4187 30.5439Z" fill="#62D1E5"/>
</svg>
