<svg width="50" height="39" viewBox="0 0 50 39" fill="none" xmlns="http://www.w3.org/2000/svg">
<g clip-path="url(#clip0_1_127)">
<path d="M42.3271 3.40478C39.1403 1.96129 35.7229 0.897797 32.1498 0.288688C32.0847 0.276932 32.0197 0.30631 31.9862 0.365067C31.5467 1.13673 31.0599 2.14343 30.7189 2.9347C26.8758 2.36673 23.0525 2.36673 19.2882 2.9347C18.9472 2.12585 18.4427 1.13673 18.0012 0.365067C17.9677 0.308271 17.9027 0.278893 17.8376 0.288688C14.2665 0.89585 10.8491 1.95935 7.66028 3.40478C7.63268 3.41653 7.60901 3.43613 7.59331 3.46158C1.11123 13.0214 -0.66448 22.3462 0.206625 31.5554C0.210567 31.6005 0.236187 31.6436 0.271663 31.671C4.54835 34.7713 8.69106 36.6536 12.7568 37.9011C12.8219 37.9208 12.8908 37.8973 12.9323 37.8444C13.894 36.5478 14.7513 35.1807 15.4864 33.7431C15.5298 33.6589 15.4884 33.559 15.3997 33.5257C14.0399 33.0165 12.745 32.3956 11.4994 31.6906C11.4009 31.6338 11.393 31.4947 11.4837 31.4281C11.7458 31.2342 12.008 31.0324 12.2582 30.8287C12.3035 30.7915 12.3666 30.7837 12.4199 30.8072C20.6027 34.4952 29.4616 34.4952 37.5478 30.8072C37.6011 30.7817 37.6642 30.7896 37.7114 30.8268C37.9618 31.0305 38.2239 31.2342 38.488 31.4281C38.5786 31.4947 38.5727 31.6338 38.4742 31.6906C37.2286 32.4093 35.9337 33.0165 34.5719 33.5238C34.4832 33.5571 34.4438 33.6589 34.4872 33.7431C35.238 35.1787 36.0954 36.5458 37.0394 37.8424C37.0788 37.8973 37.1497 37.9208 37.2148 37.9011C41.3003 36.6536 45.443 34.7713 49.7196 31.671C49.7571 31.6436 49.7808 31.6024 49.7847 31.5574C50.8273 20.9105 48.0385 11.6621 42.3921 3.46352C42.3783 3.43613 42.3547 3.41653 42.3271 3.40478ZM16.7084 25.948C14.2448 25.948 12.2149 23.7152 12.2149 20.9732C12.2149 18.2312 14.2054 15.9984 16.7084 15.9984C19.231 15.9984 21.2413 18.2508 21.2018 20.9732C21.2018 23.7152 19.2113 25.948 16.7084 25.948ZM33.3224 25.948C30.8589 25.948 28.8289 23.7152 28.8289 20.9732C28.8289 18.2312 30.8194 15.9984 33.3224 15.9984C35.8451 15.9984 37.8553 18.2508 37.8159 20.9732C37.8159 23.7152 35.8451 25.948 33.3224 25.948Z" fill="white"/>
</g>
<defs>
<clipPath id="clip0_1_127">
<rect width="50" height="38.2353" fill="white"/>
</clipPath>
</defs>
</svg>
