<svg width="953" height="622" viewBox="0 0 953 622" fill="none" xmlns="http://www.w3.org/2000/svg">
<g clip-path="url(#clip0_1_333)">
<path d="M709.956 0H225.698C218.866 0 213.327 5.57294 213.327 12.4475V159.924C213.327 166.799 218.866 172.372 225.698 172.372H709.956C716.788 172.372 722.327 166.799 722.327 159.924V12.4475C722.327 5.57294 716.788 0 709.956 0Z" fill="#62D1E5" fill-opacity="0.3"/>
<path d="M556.914 220.364H225.698C218.866 220.364 213.327 225.936 213.327 232.811V380.288C213.327 387.163 218.866 392.735 225.698 392.735H556.914C563.746 392.735 569.285 387.163 569.285 380.288V232.811C569.285 225.936 563.746 220.364 556.914 220.364Z" fill="#62D1E5" fill-opacity="0.3"/>
<path d="M157.024 220.364H12.3706C5.53853 220.364 0 225.936 0 232.811V380.288C0 387.163 5.53853 392.735 12.3706 392.735H157.024C163.856 392.735 169.395 387.163 169.395 380.288V232.811C169.395 225.936 163.856 220.364 157.024 220.364Z" fill="#62D1E5" fill-opacity="0.3"/>
<path d="M948.464 220.364H803.81C796.978 220.364 791.439 225.936 791.439 232.811V380.288C791.439 387.163 796.978 392.735 803.81 392.735H948.464C955.296 392.735 960.834 387.163 960.834 380.288V232.811C960.834 225.936 955.296 220.364 948.464 220.364Z" fill="#62D1E5" fill-opacity="0.3"/>
<path d="M1287.63 449.01H803.81C796.978 449.01 791.439 454.582 791.439 461.457V608.934C791.439 615.809 796.978 621.381 803.81 621.381H1287.63C1294.46 621.381 1300 615.809 1300 608.934V461.457C1300 454.582 1294.46 449.01 1287.63 449.01Z" fill="#62D1E5" fill-opacity="0.3"/>
<path d="M1285.67 0H801.411C794.579 0 789.04 5.57294 789.04 12.4475V159.924C789.04 166.799 794.579 172.372 801.411 172.372H1285.67C1292.5 172.372 1298.04 166.799 1298.04 159.924V12.4475C1298.04 5.57294 1292.5 0 1285.67 0Z" fill="#62D1E5" fill-opacity="0.3"/>
<path d="M371.01 446.422H225.698C218.866 446.422 213.327 451.995 213.327 458.87V606.347C213.327 613.221 218.866 618.794 225.698 618.794H371.01C377.842 618.794 383.38 613.221 383.38 606.347V458.87C383.38 451.995 377.842 446.422 371.01 446.422Z" fill="#62D1E5" fill-opacity="0.3"/>
</g>
<defs>
<clipPath id="clip0_1_333">
<rect width="1300" height="621.366" fill="white"/>
</clipPath>
</defs>
</svg>
