<svg width="68" height="33" viewBox="0 0 68 33" fill="none" xmlns="http://www.w3.org/2000/svg">
<g clip-path="url(#clip0_1_137)">
<path d="M37.1362 0H11.8058C11.4484 0 11.1587 0.295972 11.1587 0.661072V8.4934C11.1587 8.8585 11.4484 9.15447 11.8058 9.15447H37.1362C37.4936 9.15447 37.7833 8.8585 37.7833 8.4934V0.661072C37.7833 0.295972 37.4936 0 37.1362 0Z" fill="#62D1E5"/>
<path d="M29.131 11.7032H11.8058C11.4484 11.7032 11.1587 11.9992 11.1587 12.3643V20.1966C11.1587 20.5617 11.4484 20.8577 11.8058 20.8577H29.131C29.4883 20.8577 29.778 20.5617 29.778 20.1966V12.3643C29.778 11.9992 29.4883 11.7032 29.131 11.7032Z" fill="#62D1E5"/>
<path d="M8.21357 11.7032H0.64708C0.289708 11.7032 0 11.9992 0 12.3643V20.1966C0 20.5617 0.289708 20.8577 0.64708 20.8577H8.21357C8.57094 20.8577 8.86065 20.5617 8.86065 20.1966V12.3643C8.86065 11.9992 8.57094 11.7032 8.21357 11.7032Z" fill="#62D1E5"/>
<path d="M49.6119 11.7032H42.0454C41.688 11.7032 41.3983 11.9992 41.3983 12.3643V20.1966C41.3983 20.5617 41.688 20.8577 42.0454 20.8577H49.6119C49.9693 20.8577 50.259 20.5617 50.259 20.1966V12.3643C50.259 11.9992 49.9693 11.7032 49.6119 11.7032Z" fill="#62D1E5"/>
<path d="M67.3529 23.8463H42.0454C41.688 23.8463 41.3983 24.1423 41.3983 24.5074V32.3397C41.3983 32.7048 41.688 33.0008 42.0454 33.0008H67.3529C67.7102 33.0008 68 32.7048 68 32.3397V24.5074C68 24.1423 67.7102 23.8463 67.3529 23.8463Z" fill="#62D1E5"/>
<path d="M67.2503 0H41.9199C41.5625 0 41.2728 0.295972 41.2728 0.661072V8.4934C41.2728 8.8585 41.5625 9.15447 41.9199 9.15447H67.2503C67.6077 9.15447 67.8974 8.8585 67.8974 8.4934V0.661072C67.8974 0.295972 67.6077 0 67.2503 0Z" fill="#62D1E5"/>
<path d="M19.4067 23.709H11.8058C11.4484 23.709 11.1587 24.005 11.1587 24.3701V32.2024C11.1587 32.5675 11.4484 32.8635 11.8058 32.8635H19.4067C19.7641 32.8635 20.0538 32.5675 20.0538 32.2024V24.3701C20.0538 24.005 19.7641 23.709 19.4067 23.709Z" fill="#62D1E5"/>
</g>
<defs>
<clipPath id="clip0_1_137">
<rect width="68" height="33" fill="white"/>
</clipPath>
</defs>
</svg>
