<svg width="356" height="170" viewBox="0 0 356 170" fill="none" xmlns="http://www.w3.org/2000/svg">
<g clip-path="url(#clip0_1_118)">
<path d="M194.419 0H61.8064C59.9355 0 58.4188 1.52471 58.4188 3.40552V43.7539C58.4188 45.6347 59.9355 47.1594 61.8064 47.1594H194.419C196.29 47.1594 197.806 45.6347 197.806 43.7539V3.40552C197.806 1.52471 196.29 0 194.419 0Z" fill="white"/>
<path d="M152.509 60.2896H61.8064C59.9355 60.2896 58.4188 61.8143 58.4188 63.6951V104.043C58.4188 105.924 59.9355 107.449 61.8064 107.449H152.509C154.38 107.449 155.897 105.924 155.897 104.043V63.6951C155.897 61.8143 154.38 60.2896 152.509 60.2896Z" fill="white"/>
<path d="M43.0005 60.2896H3.38765C1.5167 60.2896 0 61.8143 0 63.6951V104.043C0 105.924 1.5167 107.449 3.38765 107.449H43.0005C44.8714 107.449 46.3881 105.924 46.3881 104.043V63.6951C46.3881 61.8143 44.8714 60.2896 43.0005 60.2896Z" fill="white"/>
<path d="M259.733 60.2896H220.12C218.249 60.2896 216.733 61.8143 216.733 63.6951V104.043C216.733 105.924 218.249 107.449 220.12 107.449H259.733C261.604 107.449 263.121 105.924 263.121 104.043V63.6951C263.121 61.8143 261.604 60.2896 259.733 60.2896Z" fill="white"/>
<path d="M352.612 122.845H220.12C218.249 122.845 216.733 124.37 216.733 126.251V166.599C216.733 168.48 218.249 170.004 220.12 170.004H352.612C354.483 170.004 356 168.48 356 166.599V126.251C356 124.37 354.483 122.845 352.612 122.845Z" fill="white"/>
<path d="M352.076 0H219.463C217.592 0 216.076 1.52471 216.076 3.40552V43.7539C216.076 45.6347 217.592 47.1594 219.463 47.1594H352.076C353.947 47.1594 355.463 45.6347 355.463 43.7539V3.40552C355.463 1.52471 353.947 0 352.076 0Z" fill="white"/>
<path d="M101.6 122.137H61.8064C59.9355 122.137 58.4188 123.662 58.4188 125.542V165.891C58.4188 167.772 59.9355 169.296 61.8064 169.296H101.6C103.471 169.296 104.987 167.772 104.987 165.891V125.542C104.987 123.662 103.471 122.137 101.6 122.137Z" fill="white"/>
</g>
<defs>
<clipPath id="clip0_1_118">
<rect width="356" height="170" fill="white"/>
</clipPath>
</defs>
</svg>
