<svg width="65" height="60" viewBox="0 0 65 60" fill="none" xmlns="http://www.w3.org/2000/svg">
<path d="M61.0807 0.80249L36.4087 19.1267L40.9711 8.31567L61.0807 0.80249Z" fill="#15BED6" stroke="#15BED6" stroke-linecap="round" stroke-linejoin="round"/>
<path d="M4.1243 0.80249L28.5979 19.3003L24.2586 8.31567L4.1243 0.80249ZM52.2037 43.278L45.6328 53.3452L59.6921 57.2134L63.7338 43.5012L52.2037 43.278ZM1.52072 43.5012L5.53767 57.2134L19.597 53.3452L13.0261 43.278L1.52072 43.5012Z" fill="#15BED6" stroke="#15BED6" stroke-linecap="round" stroke-linejoin="round"/>
<path d="M18.8035 26.2682L14.8858 32.1944L28.8459 32.8143L28.35 17.8127L18.8035 26.2682ZM46.4015 26.2682L36.731 17.6392L36.4087 32.8143L50.344 32.1944L46.4015 26.2682ZM19.597 53.3454L27.978 49.254L20.7376 43.6006L19.597 53.3454ZM37.2269 49.254L45.6328 53.3454L44.4674 43.6006L37.2269 49.254Z" fill="#14B1C7" stroke="#E4761B" stroke-linecap="round" stroke-linejoin="round"/>
<path d="M45.6328 53.3452L37.2269 49.2539L37.8964 54.7338L37.822 57.0398L45.6328 53.3452ZM19.597 53.3452L27.4077 57.0398L27.3581 54.7338L27.978 49.2539L19.597 53.3452Z" fill="#6BE0F0" stroke="#6BE0F0" stroke-linecap="round" stroke-linejoin="round"/>
<path d="M27.5317 39.9803L20.5392 37.9222L25.4736 35.6658L27.5317 39.9803ZM37.6733 39.9803L39.7313 35.6658L44.6905 37.9222L37.6733 39.9803Z" fill="#233447" stroke="#233447" stroke-linecap="round" stroke-linejoin="round"/>
<path d="M19.597 53.3453L20.7872 43.2781L13.0261 43.5013L19.597 53.3453ZM44.4426 43.2781L45.6328 53.3453L52.2037 43.5013L44.4426 43.2781ZM50.344 32.1943L36.4087 32.8142L37.6981 39.9803L39.7561 35.6658L44.7153 37.9222L50.344 32.1943ZM20.5392 37.9222L25.4984 35.6658L27.5317 39.9803L28.8459 32.8142L14.8858 32.1943L20.5392 37.9222Z" fill="#0E8191" stroke="#0E8191" stroke-linecap="round" stroke-linejoin="round"/>
<path d="M14.8858 32.1943L20.7376 43.6005L20.5392 37.9222L14.8858 32.1943ZM44.7153 37.9222L44.4674 43.6005L50.344 32.1943L44.7153 37.9222ZM28.8459 32.8142L27.5317 39.9803L29.1682 48.4357L29.5402 37.3023L28.8459 32.8142ZM36.4087 32.8142L35.7392 37.2775L36.0367 48.4357L37.6981 39.9803L36.4087 32.8142Z" fill="#16C5DD" stroke="#16C5DD" stroke-linecap="round" stroke-linejoin="round"/>
<path d="M37.6981 39.9802L36.0367 48.4356L37.2269 49.2539L44.4674 43.6004L44.7153 37.9221L37.6981 39.9802ZM20.5392 37.9221L20.7376 43.6004L27.978 49.2539L29.1682 48.4356L27.5317 39.9802L20.5392 37.9221Z" fill="#17CBE4" stroke="#16C5DD" stroke-linecap="round" stroke-linejoin="round"/>
<path d="M37.822 57.0398L37.8964 54.7338L37.2765 54.1883H27.9284L27.3581 54.7338L27.4077 57.0398L19.597 53.3452L22.3246 55.5769L27.8541 59.4202H37.3509L42.9052 55.5769L45.6328 53.3452L37.822 57.0398Z" fill="#51DBEE" stroke="#51DBEE" stroke-linecap="round" stroke-linejoin="round"/>
<path d="M37.2269 49.2538L36.0367 48.4355H29.1682L27.978 49.2538L27.3581 54.7337L27.9284 54.1882H37.2765L37.8964 54.7337L37.2269 49.2538Z" fill="#161616" stroke="#161616" stroke-linecap="round" stroke-linejoin="round"/>
<path d="M62.1221 20.3169L64.2297 10.2002L61.0807 0.80249L37.2269 18.5068L46.4014 26.268L59.3697 30.0618L62.2461 26.7143L61.0063 25.8216L62.9899 24.0115L61.4526 22.8213L63.4363 21.3088L62.1221 20.3169ZM1 10.2002L3.10766 20.3169L1.76868 21.3088L3.75235 22.8213L2.2398 24.0115L4.22348 25.8216L2.98368 26.7143L5.83522 30.0618L18.8035 26.268L27.978 18.5068L4.12429 0.80249L1 10.2002Z" fill="#0E8090" stroke="#0E8090" stroke-linecap="round" stroke-linejoin="round"/>
<path d="M59.3698 30.0617L46.4014 26.268L50.344 32.1942L44.4674 43.6004L52.2037 43.5012H63.7338L59.3698 30.0617ZM18.8035 26.268L5.83522 30.0617L1.52072 43.5012H13.0261L20.7376 43.6004L14.8858 32.1942L18.8035 26.268ZM36.4087 32.8141L37.2269 18.5068L40.9959 8.31567H24.2586L27.978 18.5068L28.8459 32.8141L29.1434 37.327L29.1682 48.4356H36.0367L36.0863 37.327L36.4087 32.8141Z" fill="#16C5DD" stroke="#16C5DD" stroke-linecap="round" stroke-linejoin="round"/>
</svg>
