<svg width="39" height="39" viewBox="0 0 39 39" fill="none" xmlns="http://www.w3.org/2000/svg">
<path d="M19.45 39.0001C30.1919 39.0001 38.9 30.292 38.9 19.5501C38.9 8.80816 30.1919 0.100098 19.45 0.100098C8.70806 0.100098 0 8.80816 0 19.5501C0 30.292 8.70806 39.0001 19.45 39.0001Z" fill="white"/>
<path d="M32.4214 19.5499C32.3635 17.9836 31.0483 16.7604 29.4771 16.8135C28.7808 16.8377 28.1187 17.123 27.616 17.6015C25.4017 16.093 22.8006 15.2662 20.1269 15.2083L21.3885 9.14073L25.5513 10.016C25.6671 11.0844 26.6245 11.8581 27.6929 11.7418C28.7614 11.626 29.535 10.6686 29.4188 9.60018C29.3025 8.53173 28.3456 7.75805 27.2771 7.87432C26.6629 7.93699 26.1118 8.29487 25.8076 8.82694L21.0406 7.87432C20.7169 7.80171 20.3927 8.00485 20.3201 8.33377C20.3201 8.33853 20.3201 8.33853 20.3201 8.34328L18.8842 15.0924C16.1768 15.1361 13.542 15.9677 11.2987 17.4856C10.1577 16.4124 8.35919 16.4656 7.28598 17.6114C6.21277 18.7525 6.26594 20.551 7.41176 21.6242C7.63435 21.8321 7.89023 22.011 8.17549 22.1368C8.15604 22.4221 8.15604 22.7073 8.17549 22.9926C8.17549 27.3485 13.2519 30.8923 19.5127 30.8923C25.7734 30.8923 30.8499 27.3533 30.8499 22.9926C30.8693 22.7073 30.8693 22.4221 30.8499 22.1368C31.8267 21.6484 32.4409 20.6426 32.4214 19.5499ZM12.9714 21.4984C12.9714 20.4252 13.8467 19.5499 14.9199 19.5499C15.9931 19.5499 16.8683 20.4252 16.8683 21.4984C16.8683 22.5716 15.9931 23.4469 14.9199 23.4469C13.8419 23.4369 12.9714 22.5716 12.9714 21.4984ZM24.2701 26.9228V26.8454C22.8875 27.8849 21.1953 28.4165 19.4643 28.3444C17.7332 28.417 16.0415 27.8849 14.6584 26.8454C14.4747 26.6228 14.5084 26.2896 14.731 26.1059C14.9242 25.9464 15.2 25.9464 15.3984 26.1059C16.5684 26.9617 17.9947 27.3969 19.4448 27.3291C20.8954 27.4064 22.3264 26.9906 23.5107 26.1448C23.7234 25.9369 24.0713 25.9416 24.2797 26.1543C24.4876 26.3669 24.4828 26.7149 24.2701 26.9228ZM24.0043 23.5869C23.9706 23.5869 23.9417 23.5869 23.9075 23.5869L23.9222 23.5143C22.849 23.5143 21.9738 22.639 21.9738 21.5658C21.9738 20.4926 22.849 19.6174 23.9222 19.6174C24.9954 19.6174 25.8707 20.4926 25.8707 21.5658C25.9139 22.6395 25.0775 23.5432 24.0043 23.5869Z" fill="black"/>
</svg>
